<svg width="170" height="45" viewBox="0 0 170 45" xmlns="http://www.w3.org/2000/svg">
  <defs>
    <linearGradient id="phoneGradPurple" x1="0%" y1="0%" x2="100%" y2="0%">
      <stop offset="0%" stop-color="#8b5cf6"/>
      <stop offset="100%" stop-color="#6d28d9"/>
    </linearGradient>
  </defs>

  <rect width="170" height="45" rx="10" fill="url(#phoneGradPurple)"/>

  <!-- Phone icon -->
  <path d="M52 15c0-1.1-.9-2-2-2h-4c-1.1 0-2 .9-2 2 0 9.4 7.6 17 17 17 1.1 0 2-.9 2-2v-4c0-1.1-.9-2-2-2h-3c-.7 0-1.4.4-1.7 1.1l-.7 1.4c-2.7-1.3-4.9-3.5-6.2-6.2l1.4-.7c.7-.3 1.1-1 1.1-1.7v-3z" fill="#ffffff"/>

  <text x="95" y="28"
        font-family="Arial, Helvetica, sans-serif"
        font-size="14"
        fill="#ffffff"
        text-anchor="middle"
        font-weight="bold">
    Phone
  </text>
</svg>
